<?xml version="1.0" encoding="utf-8"?>
<!-- Generator: Adobe Illustrator 22.0.0, SVG Export Plug-In . SVG Version: 6.00 Build 0)  -->
<svg version="1.1" id="Слой_1" xmlns="http://www.w3.org/2000/svg" xmlns:xlink="http://www.w3.org/1999/xlink" x="0px" y="0px"
	 viewBox="0 0 167.2 134.9" style="enable-background:new 0 0 167.2 134.9;" xml:space="preserve">
<style type="text/css">
	.st0{fill:none;stroke:#002432;stroke-width:1.5;stroke-miterlimit:10;}
	.st1{fill:none;stroke:#09232F;stroke-width:1.5;stroke-miterlimit:10;}
	.st2{fill:none;stroke:#002432;stroke-miterlimit:10;}
	.st3{fill:#EF243C;}
	.st4{fill:none;stroke:#05232F;stroke-width:1.5;stroke-miterlimit:10;}
	.st5{fill:#FFFFFF;stroke:#000000;stroke-width:1.5;stroke-miterlimit:10;}
	.st6{fill:none;stroke:#000000;stroke-width:1.5;stroke-miterlimit:10;}
</style>
<line class="st0" x1="28.4" y1="121.5" x2="30.6" y2="123.2"/>
<line class="st0" x1="33.8" y1="121" x2="31.9" y2="123.1"/>
<line class="st0" x1="34.1" y1="126.2" x2="31.9" y2="124.4"/>
<line class="st0" x1="28.6" y1="126.6" x2="30.5" y2="124.5"/>
<line class="st0" x1="108.2" y1="18.9" x2="110.4" y2="20.6"/>
<line class="st0" x1="113.6" y1="18.4" x2="111.7" y2="20.5"/>
<line class="st0" x1="113.9" y1="23.6" x2="111.7" y2="21.8"/>
<line class="st0" x1="108.4" y1="24" x2="110.3" y2="21.9"/>
<line class="st0" x1="51" y1="16.9" x2="63.4" y2="16.9"/>
<line class="st0" x1="65.4" y1="16.9" x2="69.7" y2="16.9"/>
<line class="st0" x1="75.7" y1="21.2" x2="57.3" y2="21.2"/>
<line class="st0" x1="55.2" y1="21.2" x2="51" y2="21.2"/>
<line class="st0" x1="26.3" y1="88.5" x2="38.7" y2="88.5"/>
<line class="st0" x1="40.7" y1="88.5" x2="45" y2="88.5"/>
<line class="st0" x1="51" y1="92.8" x2="32.6" y2="92.8"/>
<line class="st0" x1="30.5" y1="92.8" x2="26.3" y2="92.8"/>
<line class="st1" x1="40.1" y1="65.3" x2="40.1" y2="75.8"/>
<line class="st0" x1="40.1" y1="78.1" x2="40.1" y2="79.6"/>
<line class="st1" x1="148.9" y1="38.7" x2="148.9" y2="49.2"/>
<line class="st0" x1="148.9" y1="51.5" x2="148.9" y2="53"/>
<circle class="st2" cx="68.7" cy="123.8" r="1.9"/>
<circle class="st2" cx="135.6" cy="53" r="1.9"/>
<circle class="st2" cx="60.3" cy="32.7" r="1.9"/>
<polygon class="st3" points="128.6,118.2 51,118.2 55.4,106.2 60.9,99.3 70.3,96.3 78.9,96 89.6,111.3 101.4,96 110,96.3 
	117.9,98.5 123.8,103.4 128,113.1 "/>
<path class="st1" d="M78.9,96.6c0,0-9.6-2.1-16.8,2.4c-9.1,5.6-10.9,19.2-10.9,19.2h77.3c0.3,0,0-12.3-8.3-18.4
	c-5.9-4.3-19.2-3.5-19.2-3.5"/>
<path class="st1" d="M113.9,63.2c0,3.7-2.7,5.6-3.5,7.7c-3.5,9.6-15.2,16-20,16c-6.9,0-15.5-6.4-18.9-16C71,69,67,68.2,67,63.2
	c0-3.5,2.4-4.5,2.4-6.1C71,43,68.6,32.6,90.2,31.5c20.7-1.1,20.7,10.1,21.8,25.6C112,57.9,113.9,59.7,113.9,63.2z"/>
<path class="st1" d="M69.9,53.3c0,0,3.2-5.3,5.1-6.1c1.9-0.8,7.5,0.3,7.5,0.3s-0.3-1.3-1.1-2.9c-0.3-1.1,0.3-2.9,0.3-2.9
	s7.7,4.3,12.5,5.6c3.7,1.1,7.7-1.1,10.1-0.3c2.4,0.5,7.7,9.1,7.7,9.1"/>
<line class="st1" x1="78.9" y1="96.3" x2="78.7" y2="81.9"/>
<line class="st1" x1="100.8" y1="96" x2="101.1" y2="82.4"/>
<polyline class="st1" points="101.1,96 89.6,111.3 79,96.2 78.8,96 "/>
<line class="st4" x1="32.9" y1="37" x2="47.2" y2="37"/>
<path class="st5" d="M160.1,107.9h-58.5c-1.2,0-2.2-1-2.2-2.2V63.6c0-1.2,1-2.2,2.2-2.2h58.5c1.2,0,2.2,1,2.2,2.2v42.1
	C162.3,106.9,161.3,107.9,160.1,107.9z"/>
<rect x="126.9" y="107.9" class="st5" width="6.7" height="6.7"/>
<rect x="116.9" y="114.6" class="st5" width="26.5" height="3.6"/>
<line class="st6" x1="99.4" y1="100.1" x2="162.3" y2="100.1"/>
<g>
	<path class="st3" d="M116.4,83.1c0,3.5-2.1,5.5-5,5.5c-3,0-4.8-2.3-4.8-5.3c0-3.2,2-5.5,5-5.5C114.6,77.8,116.4,80.2,116.4,83.1z
		 M108.6,83.3c0,2.1,1.1,3.8,2.9,3.8c1.9,0,2.9-1.7,2.9-3.9c0-2-1-3.8-2.9-3.8C109.6,79.4,108.6,81.1,108.6,83.3z"/>
	<path class="st3" d="M118.1,83.2c0-0.9,0-1.6-0.1-2.3h1.7l0.1,1.1h0c0.3-0.6,1.2-1.3,2.4-1.3c1.3,0,2.7,0.9,2.7,3.3v4.5H123v-4.3
		c0-1.1-0.4-1.9-1.4-1.9c-0.8,0-1.3,0.5-1.5,1.1c-0.1,0.2-0.1,0.4-0.1,0.6v4.5h-1.9V83.2z"/>
	<path class="st3" d="M130.4,83.7V85h-4v-1.3H130.4z"/>
	<path class="st3" d="M131.9,77.4h1.9v11.1h-1.9V77.4z"/>
	<path class="st3" d="M137.9,78.8c0,0.6-0.4,1-1.1,1c-0.6,0-1.1-0.5-1.1-1c0-0.6,0.4-1,1.1-1C137.5,77.8,137.9,78.2,137.9,78.8z
		 M135.9,88.5v-7.6h1.9v7.6H135.9z"/>
	<path class="st3" d="M139.9,83.2c0-0.9,0-1.6-0.1-2.3h1.7l0.1,1.1h0c0.3-0.6,1.2-1.3,2.4-1.3c1.3,0,2.7,0.9,2.7,3.3v4.5h-1.9v-4.3
		c0-1.1-0.4-1.9-1.4-1.9c-0.8,0-1.3,0.5-1.5,1.1c-0.1,0.2-0.1,0.4-0.1,0.6v4.5h-1.9V83.2z"/>
	<path class="st3" d="M150.1,85.2c0,1.4,1.1,2,2.3,2c0.9,0,1.5-0.1,2.1-0.3l0.3,1.3c-0.7,0.3-1.6,0.5-2.6,0.5
		c-2.5,0-3.9-1.5-3.9-3.8c0-2.1,1.3-4.1,3.7-4.1c2.5,0,3.3,2,3.3,3.7c0,0.4,0,0.6-0.1,0.8H150.1z M153.4,83.9c0-0.7-0.3-1.9-1.6-1.9
		c-1.2,0-1.7,1.1-1.8,1.9H153.4z"/>
</g>
</svg>
